<?xml version="1.0" encoding="utf-8" standalone="no"?>
<!DOCTYPE svg PUBLIC "-//W3C//DTD SVG 1.1//EN"
  "http://www.w3.org/Graphics/SVG/1.1/DTD/svg11.dtd">
<svg xmlns:xlink="http://www.w3.org/1999/xlink" width="1072.86pt" height="352.226875pt" viewBox="0 0 1072.86 352.226875" xmlns="http://www.w3.org/2000/svg" version="1.1">
 <metadata>
  <rdf:RDF xmlns:dc="http://purl.org/dc/elements/1.1/" xmlns:cc="http://creativecommons.org/ns#" xmlns:rdf="http://www.w3.org/1999/02/22-rdf-syntax-ns#">
   <cc:Work>
    <dc:type rdf:resource="http://purl.org/dc/dcmitype/StillImage"/>
    <dc:date>2025-12-18T03:11:52.049777</dc:date>
    <dc:format>image/svg+xml</dc:format>
    <dc:creator>
     <cc:Agent>
      <dc:title>Matplotlib v3.10.7, https://matplotlib.org/</dc:title>
     </cc:Agent>
    </dc:creator>
   </cc:Work>
  </rdf:RDF>
 </metadata>
 <defs>
  <style type="text/css">*{stroke-linejoin: round; stroke-linecap: butt}</style>
 </defs>
 <g id="figure_1">
  <g id="patch_1">
   <path d="M 0 352.226875 
L 1072.86 352.226875 
L 1072.86 0 
L 0 0 
z
" style="fill: #ffffff"/>
  </g>
  <g id="axes_1">
   <g id="patch_2">
    <path d="M 59.04 317.401562 
L 545.01 317.401562 
L 545.01 23.461562 
L 59.04 23.461562 
z
" style="fill: #eaeaf2"/>
   </g>
   <g id="matplotlib.axis_1">
    <g id="xtick_1">
     <g id="line2d_1">
      <path d="M 150.886005 317.401562 
L 150.886005 23.461562 
" clip-path="url(#p058792ebc8)" style="fill: none; stroke: #ffffff; stroke-opacity: 0.3; stroke-width: 0.8; stroke-linecap: round"/>
     </g>
     <g id="line2d_2"/>
     <g id="text_1">
      <!-- 20 -->
      <g style="fill: #262626" transform="translate(145.325067 328.059375) scale(0.1 -0.1)">
       <defs>
        <path id="ArialMT-32" d="M 3222 541 
L 3222 0 
L 194 0 
Q 188 203 259 391 
Q 375 700 629 1000 
Q 884 1300 1366 1694 
Q 2113 2306 2375 2664 
Q 2638 3022 2638 3341 
Q 2638 3675 2398 3904 
Q 2159 4134 1775 4134 
Q 1369 4134 1125 3890 
Q 881 3647 878 3216 
L 300 3275 
Q 359 3922 746 4261 
Q 1134 4600 1788 4600 
Q 2447 4600 2831 4234 
Q 3216 3869 3216 3328 
Q 3216 3053 3103 2787 
Q 2991 2522 2730 2228 
Q 2469 1934 1863 1422 
Q 1356 997 1212 845 
Q 1069 694 975 541 
L 3222 541 
z
" transform="scale(0.015625)"/>
        <path id="ArialMT-30" d="M 266 2259 
Q 266 3072 433 3567 
Q 600 4063 929 4331 
Q 1259 4600 1759 4600 
Q 2128 4600 2406 4451 
Q 2684 4303 2865 4023 
Q 3047 3744 3150 3342 
Q 3253 2941 3253 2259 
Q 3253 1453 3087 958 
Q 2922 463 2592 192 
Q 2263 -78 1759 -78 
Q 1097 -78 719 397 
Q 266 969 266 2259 
z
M 844 2259 
Q 844 1131 1108 757 
Q 1372 384 1759 384 
Q 2147 384 2411 759 
Q 2675 1134 2675 2259 
Q 2675 3391 2411 3762 
Q 2147 4134 1753 4134 
Q 1366 4134 1134 3806 
Q 844 3388 844 2259 
z
" transform="scale(0.015625)"/>
       </defs>
       <use xlink:href="#ArialMT-32"/>
       <use xlink:href="#ArialMT-30" transform="translate(55.615234 0)"/>
      </g>
     </g>
    </g>
    <g id="xtick_2">
     <g id="line2d_3">
      <path d="M 243.894617 317.401562 
L 243.894617 23.461562 
" clip-path="url(#p058792ebc8)" style="fill: none; stroke: #ffffff; stroke-opacity: 0.3; stroke-width: 0.8; stroke-linecap: round"/>
     </g>
     <g id="line2d_4"/>
     <g id="text_2">
      <!-- 40 -->
      <g style="fill: #262626" transform="translate(238.33368 328.059375) scale(0.1 -0.1)">
       <defs>
        <path id="ArialMT-34" d="M 2069 0 
L 2069 1097 
L 81 1097 
L 81 1613 
L 2172 4581 
L 2631 4581 
L 2631 1613 
L 3250 1613 
L 3250 1097 
L 2631 1097 
L 2631 0 
L 2069 0 
z
M 2069 1613 
L 2069 3678 
L 634 1613 
L 2069 1613 
z
" transform="scale(0.015625)"/>
       </defs>
       <use xlink:href="#ArialMT-34"/>
       <use xlink:href="#ArialMT-30" transform="translate(55.615234 0)"/>
      </g>
     </g>
    </g>
    <g id="xtick_3">
     <g id="line2d_5">
      <path d="M 336.90323 317.401562 
L 336.90323 23.461562 
" clip-path="url(#p058792ebc8)" style="fill: none; stroke: #ffffff; stroke-opacity: 0.3; stroke-width: 0.8; stroke-linecap: round"/>
     </g>
     <g id="line2d_6"/>
     <g id="text_3">
      <!-- 60 -->
      <g style="fill: #262626" transform="translate(331.342292 328.059375) scale(0.1 -0.1)">
       <defs>
        <path id="ArialMT-36" d="M 3184 3459 
L 2625 3416 
Q 2550 3747 2413 3897 
Q 2184 4138 1850 4138 
Q 1581 4138 1378 3988 
Q 1113 3794 959 3422 
Q 806 3050 800 2363 
Q 1003 2672 1297 2822 
Q 1591 2972 1913 2972 
Q 2475 2972 2870 2558 
Q 3266 2144 3266 1488 
Q 3266 1056 3080 686 
Q 2894 316 2569 119 
Q 2244 -78 1831 -78 
Q 1128 -78 684 439 
Q 241 956 241 2144 
Q 241 3472 731 4075 
Q 1159 4600 1884 4600 
Q 2425 4600 2770 4297 
Q 3116 3994 3184 3459 
z
M 888 1484 
Q 888 1194 1011 928 
Q 1134 663 1356 523 
Q 1578 384 1822 384 
Q 2178 384 2434 671 
Q 2691 959 2691 1453 
Q 2691 1928 2437 2201 
Q 2184 2475 1800 2475 
Q 1419 2475 1153 2201 
Q 888 1928 888 1484 
z
" transform="scale(0.015625)"/>
       </defs>
       <use xlink:href="#ArialMT-36"/>
       <use xlink:href="#ArialMT-30" transform="translate(55.615234 0)"/>
      </g>
     </g>
    </g>
    <g id="xtick_4">
     <g id="line2d_7">
      <path d="M 429.911842 317.401562 
L 429.911842 23.461562 
" clip-path="url(#p058792ebc8)" style="fill: none; stroke: #ffffff; stroke-opacity: 0.3; stroke-width: 0.8; stroke-linecap: round"/>
     </g>
     <g id="line2d_8"/>
     <g id="text_4">
      <!-- 80 -->
      <g style="fill: #262626" transform="translate(424.350905 328.059375) scale(0.1 -0.1)">
       <defs>
        <path id="ArialMT-38" d="M 1131 2484 
Q 781 2613 612 2850 
Q 444 3088 444 3419 
Q 444 3919 803 4259 
Q 1163 4600 1759 4600 
Q 2359 4600 2725 4251 
Q 3091 3903 3091 3403 
Q 3091 3084 2923 2848 
Q 2756 2613 2416 2484 
Q 2838 2347 3058 2040 
Q 3278 1734 3278 1309 
Q 3278 722 2862 322 
Q 2447 -78 1769 -78 
Q 1091 -78 675 323 
Q 259 725 259 1325 
Q 259 1772 486 2073 
Q 713 2375 1131 2484 
z
M 1019 3438 
Q 1019 3113 1228 2906 
Q 1438 2700 1772 2700 
Q 2097 2700 2305 2904 
Q 2513 3109 2513 3406 
Q 2513 3716 2298 3927 
Q 2084 4138 1766 4138 
Q 1444 4138 1231 3931 
Q 1019 3725 1019 3438 
z
M 838 1322 
Q 838 1081 952 856 
Q 1066 631 1291 507 
Q 1516 384 1775 384 
Q 2178 384 2440 643 
Q 2703 903 2703 1303 
Q 2703 1709 2433 1975 
Q 2163 2241 1756 2241 
Q 1359 2241 1098 1978 
Q 838 1716 838 1322 
z
" transform="scale(0.015625)"/>
       </defs>
       <use xlink:href="#ArialMT-38"/>
       <use xlink:href="#ArialMT-30" transform="translate(55.615234 0)"/>
      </g>
     </g>
    </g>
    <g id="xtick_5">
     <g id="line2d_9">
      <path d="M 522.920455 317.401562 
L 522.920455 23.461562 
" clip-path="url(#p058792ebc8)" style="fill: none; stroke: #ffffff; stroke-opacity: 0.3; stroke-width: 0.8; stroke-linecap: round"/>
     </g>
     <g id="line2d_10"/>
     <g id="text_5">
      <!-- 100 -->
      <g style="fill: #262626" transform="translate(514.579048 328.059375) scale(0.1 -0.1)">
       <defs>
        <path id="ArialMT-31" d="M 2384 0 
L 1822 0 
L 1822 3584 
Q 1619 3391 1289 3197 
Q 959 3003 697 2906 
L 697 3450 
Q 1169 3672 1522 3987 
Q 1875 4303 2022 4600 
L 2384 4600 
L 2384 0 
z
" transform="scale(0.015625)"/>
       </defs>
       <use xlink:href="#ArialMT-31"/>
       <use xlink:href="#ArialMT-30" transform="translate(55.615234 0)"/>
       <use xlink:href="#ArialMT-30" transform="translate(111.230469 0)"/>
      </g>
     </g>
    </g>
    <g id="text_6">
     <!-- Количество деревьев -->
     <g style="fill: #262626" transform="translate(241.795313 342.641875) scale(0.12 -0.12)">
      <defs>
       <path id="ArialMT-41a" d="M 503 4581 
L 1109 4581 
L 1109 2575 
Q 1525 2575 1694 2736 
Q 1863 2897 2125 3509 
Q 2316 3959 2439 4145 
Q 2563 4331 2791 4457 
Q 3019 4584 3294 4584 
Q 3644 4584 3663 4578 
L 3663 4053 
Q 3631 4053 3541 4056 
Q 3441 4059 3419 4059 
Q 3128 4059 2988 3919 
Q 2844 3778 2659 3319 
Q 2428 2738 2268 2586 
Q 2109 2434 1888 2344 
Q 2331 2222 2763 1525 
L 3706 0 
L 2953 0 
L 2188 1244 
Q 1872 1759 1659 1951 
Q 1447 2144 1109 2144 
L 1109 0 
L 503 0 
L 503 4581 
z
" transform="scale(0.015625)"/>
       <path id="ArialMT-43e" d="M 213 1659 
Q 213 2581 725 3025 
Q 1153 3394 1769 3394 
Q 2453 3394 2887 2945 
Q 3322 2497 3322 1706 
Q 3322 1066 3130 698 
Q 2938 331 2570 128 
Q 2203 -75 1769 -75 
Q 1072 -75 642 372 
Q 213 819 213 1659 
z
M 791 1659 
Q 791 1022 1069 705 
Q 1347 388 1769 388 
Q 2188 388 2466 706 
Q 2744 1025 2744 1678 
Q 2744 2294 2464 2611 
Q 2184 2928 1769 2928 
Q 1347 2928 1069 2612 
Q 791 2297 791 1659 
z
" transform="scale(0.015625)"/>
       <path id="ArialMT-43b" d="M 697 3319 
L 3309 3319 
L 3309 0 
L 2750 0 
L 2750 2853 
L 1259 2853 
L 1259 1200 
Q 1259 622 1221 437 
Q 1184 253 1015 115 
Q 847 -22 528 -22 
Q 331 -22 75 3 
L 75 472 
L 322 472 
Q 497 472 572 508 
Q 647 544 672 622 
Q 697 700 697 1131 
L 697 3319 
z
" transform="scale(0.015625)"/>
       <path id="ArialMT-438" d="M 422 3319 
L 984 3319 
L 984 788 
L 2544 3319 
L 3150 3319 
L 3150 0 
L 2588 0 
L 2588 2516 
L 1028 0 
L 422 0 
L 422 3319 
z
" transform="scale(0.015625)"/>
       <path id="ArialMT-447" d="M 216 3319 
L 778 3319 
L 778 2691 
Q 778 2284 826 2101 
Q 875 1919 1059 1783 
Q 1244 1647 1522 1647 
Q 1841 1647 2347 1816 
L 2347 3319 
L 2909 3319 
L 2909 0 
L 2347 0 
L 2347 1338 
Q 1828 1175 1378 1175 
Q 1000 1175 711 1367 
Q 422 1559 319 1837 
Q 216 2116 216 2450 
L 216 3319 
z
" transform="scale(0.015625)"/>
       <path id="ArialMT-435" d="M 2694 1069 
L 3275 997 
Q 3138 488 2766 206 
Q 2394 -75 1816 -75 
Q 1088 -75 661 373 
Q 234 822 234 1631 
Q 234 2469 665 2931 
Q 1097 3394 1784 3394 
Q 2450 3394 2872 2941 
Q 3294 2488 3294 1666 
Q 3294 1616 3291 1516 
L 816 1516 
Q 847 969 1125 678 
Q 1403 388 1819 388 
Q 2128 388 2347 550 
Q 2566 713 2694 1069 
z
M 847 1978 
L 2700 1978 
Q 2663 2397 2488 2606 
Q 2219 2931 1791 2931 
Q 1403 2931 1139 2672 
Q 875 2413 847 1978 
z
" transform="scale(0.015625)"/>
       <path id="ArialMT-441" d="M 2588 1216 
L 3141 1144 
Q 3050 572 2676 248 
Q 2303 -75 1759 -75 
Q 1078 -75 664 370 
Q 250 816 250 1647 
Q 250 2184 428 2587 
Q 606 2991 970 3192 
Q 1334 3394 1763 3394 
Q 2303 3394 2647 3120 
Q 2991 2847 3088 2344 
L 2541 2259 
Q 2463 2594 2264 2762 
Q 2066 2931 1784 2931 
Q 1359 2931 1093 2626 
Q 828 2322 828 1663 
Q 828 994 1084 691 
Q 1341 388 1753 388 
Q 2084 388 2306 591 
Q 2528 794 2588 1216 
z
" transform="scale(0.015625)"/>
       <path id="ArialMT-442" d="M 119 3319 
L 2816 3319 
L 2816 2853 
L 1747 2853 
L 1747 0 
L 1188 0 
L 1188 2853 
L 119 2853 
L 119 3319 
z
" transform="scale(0.015625)"/>
       <path id="ArialMT-432" d="M 425 3319 
L 1722 3319 
Q 2200 3319 2433 3239 
Q 2666 3159 2833 2946 
Q 3000 2734 3000 2438 
Q 3000 2200 2901 2023 
Q 2803 1847 2606 1728 
Q 2841 1650 2995 1436 
Q 3150 1222 3150 928 
Q 3119 456 2812 228 
Q 2506 0 1922 0 
L 425 0 
L 425 3319 
z
M 988 1922 
L 1588 1922 
Q 1947 1922 2081 1959 
Q 2216 1997 2322 2111 
Q 2428 2225 2428 2384 
Q 2428 2647 2242 2750 
Q 2056 2853 1606 2853 
L 988 2853 
L 988 1922 
z
M 988 463 
L 1728 463 
Q 2206 463 2384 573 
Q 2563 684 2572 956 
Q 2572 1116 2469 1252 
Q 2366 1388 2200 1423 
Q 2034 1459 1669 1459 
L 988 1459 
L 988 463 
z
" transform="scale(0.015625)"/>
       <path id="ArialMT-20" transform="scale(0.015625)"/>
       <path id="ArialMT-434" d="M 866 3319 
L 3178 3319 
L 3178 463 
L 3538 463 
L 3538 -941 
L 3075 -941 
L 3075 0 
L 463 0 
L 463 -941 
L 0 -941 
L 0 463 
L 297 463 
Q 891 1269 866 3319 
z
M 1334 2853 
Q 1272 1238 834 463 
L 2619 463 
L 2619 2853 
L 1334 2853 
z
" transform="scale(0.015625)"/>
       <path id="ArialMT-440" d="M 422 -1272 
L 422 3319 
L 934 3319 
L 934 2888 
Q 1116 3141 1344 3267 
Q 1572 3394 1897 3394 
Q 2322 3394 2647 3175 
Q 2972 2956 3137 2557 
Q 3303 2159 3303 1684 
Q 3303 1175 3120 767 
Q 2938 359 2589 142 
Q 2241 -75 1856 -75 
Q 1575 -75 1351 44 
Q 1128 163 984 344 
L 984 -1272 
L 422 -1272 
z
M 931 1641 
Q 931 1000 1190 694 
Q 1450 388 1819 388 
Q 2194 388 2461 705 
Q 2728 1022 2728 1688 
Q 2728 2322 2467 2637 
Q 2206 2953 1844 2953 
Q 1484 2953 1207 2617 
Q 931 2281 931 1641 
z
" transform="scale(0.015625)"/>
       <path id="ArialMT-44c" d="M 413 3319 
L 975 3319 
L 975 2022 
L 1688 2022 
Q 2384 2022 2761 1751 
Q 3138 1481 3138 1006 
Q 3138 591 2823 295 
Q 2509 0 1819 0 
L 413 0 
L 413 3319 
z
M 975 463 
L 1566 463 
Q 2100 463 2328 594 
Q 2556 725 2556 1003 
Q 2556 1219 2387 1387 
Q 2219 1556 1641 1556 
L 975 1556 
L 975 463 
z
" transform="scale(0.015625)"/>
      </defs>
      <use xlink:href="#ArialMT-41a"/>
      <use xlink:href="#ArialMT-43e" transform="translate(58.251953 0)"/>
      <use xlink:href="#ArialMT-43b" transform="translate(111.617188 0)"/>
      <use xlink:href="#ArialMT-438" transform="translate(169.966797 0)"/>
      <use xlink:href="#ArialMT-447" transform="translate(225.826172 0)"/>
      <use xlink:href="#ArialMT-435" transform="translate(277.925781 0)"/>
      <use xlink:href="#ArialMT-441" transform="translate(333.541016 0)"/>
      <use xlink:href="#ArialMT-442" transform="translate(383.541016 0)"/>
      <use xlink:href="#ArialMT-432" transform="translate(429.341797 0)"/>
      <use xlink:href="#ArialMT-43e" transform="translate(481.341797 0)"/>
      <use xlink:href="#ArialMT-20" transform="translate(536.957031 0)"/>
      <use xlink:href="#ArialMT-434" transform="translate(564.740234 0)"/>
      <use xlink:href="#ArialMT-435" transform="translate(623.089844 0)"/>
      <use xlink:href="#ArialMT-440" transform="translate(678.705078 0)"/>
      <use xlink:href="#ArialMT-435" transform="translate(734.320312 0)"/>
      <use xlink:href="#ArialMT-432" transform="translate(789.935547 0)"/>
      <use xlink:href="#ArialMT-44c" transform="translate(843.060547 0)"/>
      <use xlink:href="#ArialMT-435" transform="translate(895.160156 0)"/>
      <use xlink:href="#ArialMT-432" transform="translate(950.775391 0)"/>
     </g>
    </g>
   </g>
   <g id="matplotlib.axis_2">
    <g id="ytick_1">
     <g id="line2d_11">
      <path d="M 59.04 284.099037 
L 545.01 284.099037 
" clip-path="url(#p058792ebc8)" style="fill: none; stroke: #ffffff; stroke-opacity: 0.3; stroke-width: 0.8; stroke-linecap: round"/>
     </g>
     <g id="line2d_12"/>
     <g id="text_7">
      <!-- 130000 -->
      <g style="fill: #262626" transform="translate(22.174375 287.677943) scale(0.1 -0.1)">
       <defs>
        <path id="ArialMT-33" d="M 269 1209 
L 831 1284 
Q 928 806 1161 595 
Q 1394 384 1728 384 
Q 2125 384 2398 659 
Q 2672 934 2672 1341 
Q 2672 1728 2419 1979 
Q 2166 2231 1775 2231 
Q 1616 2231 1378 2169 
L 1441 2663 
Q 1497 2656 1531 2656 
Q 1891 2656 2178 2843 
Q 2466 3031 2466 3422 
Q 2466 3731 2256 3934 
Q 2047 4138 1716 4138 
Q 1388 4138 1169 3931 
Q 950 3725 888 3313 
L 325 3413 
Q 428 3978 793 4289 
Q 1159 4600 1703 4600 
Q 2078 4600 2393 4439 
Q 2709 4278 2876 4000 
Q 3044 3722 3044 3409 
Q 3044 3113 2884 2869 
Q 2725 2625 2413 2481 
Q 2819 2388 3044 2092 
Q 3269 1797 3269 1353 
Q 3269 753 2831 336 
Q 2394 -81 1725 -81 
Q 1122 -81 723 278 
Q 325 638 269 1209 
z
" transform="scale(0.015625)"/>
       </defs>
       <use xlink:href="#ArialMT-31"/>
       <use xlink:href="#ArialMT-33" transform="translate(55.615234 0)"/>
       <use xlink:href="#ArialMT-30" transform="translate(111.230469 0)"/>
       <use xlink:href="#ArialMT-30" transform="translate(166.845703 0)"/>
       <use xlink:href="#ArialMT-30" transform="translate(222.460938 0)"/>
       <use xlink:href="#ArialMT-30" transform="translate(278.076172 0)"/>
      </g>
     </g>
    </g>
    <g id="ytick_2">
     <g id="line2d_13">
      <path d="M 59.04 223.054911 
L 545.01 223.054911 
" clip-path="url(#p058792ebc8)" style="fill: none; stroke: #ffffff; stroke-opacity: 0.3; stroke-width: 0.8; stroke-linecap: round"/>
     </g>
     <g id="line2d_14"/>
     <g id="text_8">
      <!-- 140000 -->
      <g style="fill: #262626" transform="translate(22.174375 226.633818) scale(0.1 -0.1)">
       <use xlink:href="#ArialMT-31"/>
       <use xlink:href="#ArialMT-34" transform="translate(55.615234 0)"/>
       <use xlink:href="#ArialMT-30" transform="translate(111.230469 0)"/>
       <use xlink:href="#ArialMT-30" transform="translate(166.845703 0)"/>
       <use xlink:href="#ArialMT-30" transform="translate(222.460938 0)"/>
       <use xlink:href="#ArialMT-30" transform="translate(278.076172 0)"/>
      </g>
     </g>
    </g>
    <g id="ytick_3">
     <g id="line2d_15">
      <path d="M 59.04 162.010786 
L 545.01 162.010786 
" clip-path="url(#p058792ebc8)" style="fill: none; stroke: #ffffff; stroke-opacity: 0.3; stroke-width: 0.8; stroke-linecap: round"/>
     </g>
     <g id="line2d_16"/>
     <g id="text_9">
      <!-- 150000 -->
      <g style="fill: #262626" transform="translate(22.174375 165.589692) scale(0.1 -0.1)">
       <defs>
        <path id="ArialMT-35" d="M 266 1200 
L 856 1250 
Q 922 819 1161 601 
Q 1400 384 1738 384 
Q 2144 384 2425 690 
Q 2706 997 2706 1503 
Q 2706 1984 2436 2262 
Q 2166 2541 1728 2541 
Q 1456 2541 1237 2417 
Q 1019 2294 894 2097 
L 366 2166 
L 809 4519 
L 3088 4519 
L 3088 3981 
L 1259 3981 
L 1013 2750 
Q 1425 3038 1878 3038 
Q 2478 3038 2890 2622 
Q 3303 2206 3303 1553 
Q 3303 931 2941 478 
Q 2500 -78 1738 -78 
Q 1113 -78 717 272 
Q 322 622 266 1200 
z
" transform="scale(0.015625)"/>
       </defs>
       <use xlink:href="#ArialMT-31"/>
       <use xlink:href="#ArialMT-35" transform="translate(55.615234 0)"/>
       <use xlink:href="#ArialMT-30" transform="translate(111.230469 0)"/>
       <use xlink:href="#ArialMT-30" transform="translate(166.845703 0)"/>
       <use xlink:href="#ArialMT-30" transform="translate(222.460938 0)"/>
       <use xlink:href="#ArialMT-30" transform="translate(278.076172 0)"/>
      </g>
     </g>
    </g>
    <g id="ytick_4">
     <g id="line2d_17">
      <path d="M 59.04 100.96666 
L 545.01 100.96666 
" clip-path="url(#p058792ebc8)" style="fill: none; stroke: #ffffff; stroke-opacity: 0.3; stroke-width: 0.8; stroke-linecap: round"/>
     </g>
     <g id="line2d_18"/>
     <g id="text_10">
      <!-- 160000 -->
      <g style="fill: #262626" transform="translate(22.174375 104.545566) scale(0.1 -0.1)">
       <use xlink:href="#ArialMT-31"/>
       <use xlink:href="#ArialMT-36" transform="translate(55.615234 0)"/>
       <use xlink:href="#ArialMT-30" transform="translate(111.230469 0)"/>
       <use xlink:href="#ArialMT-30" transform="translate(166.845703 0)"/>
       <use xlink:href="#ArialMT-30" transform="translate(222.460938 0)"/>
       <use xlink:href="#ArialMT-30" transform="translate(278.076172 0)"/>
      </g>
     </g>
    </g>
    <g id="ytick_5">
     <g id="line2d_19">
      <path d="M 59.04 39.922534 
L 545.01 39.922534 
" clip-path="url(#p058792ebc8)" style="fill: none; stroke: #ffffff; stroke-opacity: 0.3; stroke-width: 0.8; stroke-linecap: round"/>
     </g>
     <g id="line2d_20"/>
     <g id="text_11">
      <!-- 170000 -->
      <g style="fill: #262626" transform="translate(22.174375 43.501441) scale(0.1 -0.1)">
       <defs>
        <path id="ArialMT-37" d="M 303 3981 
L 303 4522 
L 3269 4522 
L 3269 4084 
Q 2831 3619 2401 2847 
Q 1972 2075 1738 1259 
Q 1569 684 1522 0 
L 944 0 
Q 953 541 1156 1306 
Q 1359 2072 1739 2783 
Q 2119 3494 2547 3981 
L 303 3981 
z
" transform="scale(0.015625)"/>
       </defs>
       <use xlink:href="#ArialMT-31"/>
       <use xlink:href="#ArialMT-37" transform="translate(55.615234 0)"/>
       <use xlink:href="#ArialMT-30" transform="translate(111.230469 0)"/>
       <use xlink:href="#ArialMT-30" transform="translate(166.845703 0)"/>
       <use xlink:href="#ArialMT-30" transform="translate(222.460938 0)"/>
       <use xlink:href="#ArialMT-30" transform="translate(278.076172 0)"/>
      </g>
     </g>
    </g>
    <g id="text_12">
     <!-- RMSE -->
     <g style="fill: #262626" transform="translate(15.789375 187.766875) rotate(-90) scale(0.12 -0.12)">
      <defs>
       <path id="ArialMT-52" d="M 503 0 
L 503 4581 
L 2534 4581 
Q 3147 4581 3465 4457 
Q 3784 4334 3975 4021 
Q 4166 3709 4166 3331 
Q 4166 2844 3850 2509 
Q 3534 2175 2875 2084 
Q 3116 1969 3241 1856 
Q 3506 1613 3744 1247 
L 4541 0 
L 3778 0 
L 3172 953 
Q 2906 1366 2734 1584 
Q 2563 1803 2427 1890 
Q 2291 1978 2150 2013 
Q 2047 2034 1813 2034 
L 1109 2034 
L 1109 0 
L 503 0 
z
M 1109 2559 
L 2413 2559 
Q 2828 2559 3062 2645 
Q 3297 2731 3419 2920 
Q 3541 3109 3541 3331 
Q 3541 3656 3305 3865 
Q 3069 4075 2559 4075 
L 1109 4075 
L 1109 2559 
z
" transform="scale(0.015625)"/>
       <path id="ArialMT-4d" d="M 475 0 
L 475 4581 
L 1388 4581 
L 2472 1338 
Q 2622 884 2691 659 
Q 2769 909 2934 1394 
L 4031 4581 
L 4847 4581 
L 4847 0 
L 4263 0 
L 4263 3834 
L 2931 0 
L 2384 0 
L 1059 3900 
L 1059 0 
L 475 0 
z
" transform="scale(0.015625)"/>
       <path id="ArialMT-53" d="M 288 1472 
L 859 1522 
Q 900 1178 1048 958 
Q 1197 738 1509 602 
Q 1822 466 2213 466 
Q 2559 466 2825 569 
Q 3091 672 3220 851 
Q 3350 1031 3350 1244 
Q 3350 1459 3225 1620 
Q 3100 1781 2813 1891 
Q 2628 1963 1997 2114 
Q 1366 2266 1113 2400 
Q 784 2572 623 2826 
Q 463 3081 463 3397 
Q 463 3744 659 4045 
Q 856 4347 1234 4503 
Q 1613 4659 2075 4659 
Q 2584 4659 2973 4495 
Q 3363 4331 3572 4012 
Q 3781 3694 3797 3291 
L 3216 3247 
Q 3169 3681 2898 3903 
Q 2628 4125 2100 4125 
Q 1550 4125 1298 3923 
Q 1047 3722 1047 3438 
Q 1047 3191 1225 3031 
Q 1400 2872 2139 2705 
Q 2878 2538 3153 2413 
Q 3553 2228 3743 1945 
Q 3934 1663 3934 1294 
Q 3934 928 3725 604 
Q 3516 281 3123 101 
Q 2731 -78 2241 -78 
Q 1619 -78 1198 103 
Q 778 284 539 648 
Q 300 1013 288 1472 
z
" transform="scale(0.015625)"/>
       <path id="ArialMT-45" d="M 506 0 
L 506 4581 
L 3819 4581 
L 3819 4041 
L 1113 4041 
L 1113 2638 
L 3647 2638 
L 3647 2100 
L 1113 2100 
L 1113 541 
L 3925 541 
L 3925 0 
L 506 0 
z
" transform="scale(0.015625)"/>
      </defs>
      <use xlink:href="#ArialMT-52"/>
      <use xlink:href="#ArialMT-4d" transform="translate(72.216797 0)"/>
      <use xlink:href="#ArialMT-53" transform="translate(155.517578 0)"/>
      <use xlink:href="#ArialMT-45" transform="translate(222.216797 0)"/>
     </g>
    </g>
   </g>
   <g id="line2d_21">
    <path d="M 81.129545 253.245851 
L 104.381699 276.933143 
L 150.886005 283.123784 
L 197.390311 304.040653 
L 290.398923 297.880286 
L 406.659689 301.476396 
L 522.920455 301.673283 
" clip-path="url(#p058792ebc8)" style="fill: none; stroke: #f77189; stroke-width: 2; stroke-linecap: round"/>
    <defs>
     <path id="m95fa36152b" d="M 0 3 
C 0.795609 3 1.55874 2.683901 2.12132 2.12132 
C 2.683901 1.55874 3 0.795609 3 0 
C 3 -0.795609 2.683901 -1.55874 2.12132 -2.12132 
C 1.55874 -2.683901 0.795609 -3 0 -3 
C -0.795609 -3 -1.55874 -2.683901 -2.12132 -2.12132 
C -2.683901 -1.55874 -3 -0.795609 -3 0 
C -3 0.795609 -2.683901 1.55874 -2.12132 2.12132 
C -1.55874 2.683901 -0.795609 3 0 3 
z
" style="stroke: #f77189"/>
    </defs>
    <g clip-path="url(#p058792ebc8)">
     <use xlink:href="#m95fa36152b" x="81.129545" y="253.245851" style="fill: #f77189; stroke: #f77189"/>
     <use xlink:href="#m95fa36152b" x="104.381699" y="276.933143" style="fill: #f77189; stroke: #f77189"/>
     <use xlink:href="#m95fa36152b" x="150.886005" y="283.123784" style="fill: #f77189; stroke: #f77189"/>
     <use xlink:href="#m95fa36152b" x="197.390311" y="304.040653" style="fill: #f77189; stroke: #f77189"/>
     <use xlink:href="#m95fa36152b" x="290.398923" y="297.880286" style="fill: #f77189; stroke: #f77189"/>
     <use xlink:href="#m95fa36152b" x="406.659689" y="301.476396" style="fill: #f77189; stroke: #f77189"/>
     <use xlink:href="#m95fa36152b" x="522.920455" y="301.673283" style="fill: #f77189; stroke: #f77189"/>
    </g>
   </g>
   <g id="line2d_22">
    <path d="M 81.129545 36.822472 
L 104.381699 106.59216 
L 150.886005 116.836268 
L 197.390311 121.583099 
L 290.398923 126.84959 
L 406.659689 148.07415 
L 522.920455 139.895451 
" clip-path="url(#p058792ebc8)" style="fill: none; stroke: #bb9832; stroke-width: 2; stroke-linecap: round"/>
    <defs>
     <path id="m13df2a9e16" d="M -3 3 
L 3 3 
L 3 -3 
L -3 -3 
z
" style="stroke: #bb9832; stroke-linejoin: miter"/>
    </defs>
    <g clip-path="url(#p058792ebc8)">
     <use xlink:href="#m13df2a9e16" x="81.129545" y="36.822472" style="fill: #bb9832; stroke: #bb9832; stroke-linejoin: miter"/>
     <use xlink:href="#m13df2a9e16" x="104.381699" y="106.59216" style="fill: #bb9832; stroke: #bb9832; stroke-linejoin: miter"/>
     <use xlink:href="#m13df2a9e16" x="150.886005" y="116.836268" style="fill: #bb9832; stroke: #bb9832; stroke-linejoin: miter"/>
     <use xlink:href="#m13df2a9e16" x="197.390311" y="121.583099" style="fill: #bb9832; stroke: #bb9832; stroke-linejoin: miter"/>
     <use xlink:href="#m13df2a9e16" x="290.398923" y="126.84959" style="fill: #bb9832; stroke: #bb9832; stroke-linejoin: miter"/>
     <use xlink:href="#m13df2a9e16" x="406.659689" y="148.07415" style="fill: #bb9832; stroke: #bb9832; stroke-linejoin: miter"/>
     <use xlink:href="#m13df2a9e16" x="522.920455" y="139.895451" style="fill: #bb9832; stroke: #bb9832; stroke-linejoin: miter"/>
    </g>
   </g>
   <g id="patch_3">
    <path d="M 59.04 317.401562 
L 59.04 23.461562 
" style="fill: none"/>
   </g>
   <g id="patch_4">
    <path d="M 545.01 317.401562 
L 545.01 23.461562 
" style="fill: none"/>
   </g>
   <g id="patch_5">
    <path d="M 59.04 317.401562 
L 545.01 317.401562 
" style="fill: none"/>
   </g>
   <g id="patch_6">
    <path d="M 59.04 23.461562 
L 545.01 23.461562 
" style="fill: none"/>
   </g>
   <g id="text_13">
    <!-- Random Forest: RMSE vs Количество деревьев -->
    <g style="fill: #262626" transform="translate(148.516094 17.461562) scale(0.14 -0.14)">
     <defs>
      <path id="ArialMT-61" d="M 2588 409 
Q 2275 144 1986 34 
Q 1697 -75 1366 -75 
Q 819 -75 525 192 
Q 231 459 231 875 
Q 231 1119 342 1320 
Q 453 1522 633 1644 
Q 813 1766 1038 1828 
Q 1203 1872 1538 1913 
Q 2219 1994 2541 2106 
Q 2544 2222 2544 2253 
Q 2544 2597 2384 2738 
Q 2169 2928 1744 2928 
Q 1347 2928 1158 2789 
Q 969 2650 878 2297 
L 328 2372 
Q 403 2725 575 2942 
Q 747 3159 1072 3276 
Q 1397 3394 1825 3394 
Q 2250 3394 2515 3294 
Q 2781 3194 2906 3042 
Q 3031 2891 3081 2659 
Q 3109 2516 3109 2141 
L 3109 1391 
Q 3109 606 3145 398 
Q 3181 191 3288 0 
L 2700 0 
Q 2613 175 2588 409 
z
M 2541 1666 
Q 2234 1541 1622 1453 
Q 1275 1403 1131 1340 
Q 988 1278 909 1158 
Q 831 1038 831 891 
Q 831 666 1001 516 
Q 1172 366 1500 366 
Q 1825 366 2078 508 
Q 2331 650 2450 897 
Q 2541 1088 2541 1459 
L 2541 1666 
z
" transform="scale(0.015625)"/>
      <path id="ArialMT-6e" d="M 422 0 
L 422 3319 
L 928 3319 
L 928 2847 
Q 1294 3394 1984 3394 
Q 2284 3394 2536 3286 
Q 2788 3178 2913 3003 
Q 3038 2828 3088 2588 
Q 3119 2431 3119 2041 
L 3119 0 
L 2556 0 
L 2556 2019 
Q 2556 2363 2490 2533 
Q 2425 2703 2258 2804 
Q 2091 2906 1866 2906 
Q 1506 2906 1245 2678 
Q 984 2450 984 1813 
L 984 0 
L 422 0 
z
" transform="scale(0.015625)"/>
      <path id="ArialMT-64" d="M 2575 0 
L 2575 419 
Q 2259 -75 1647 -75 
Q 1250 -75 917 144 
Q 584 363 401 755 
Q 219 1147 219 1656 
Q 219 2153 384 2558 
Q 550 2963 881 3178 
Q 1213 3394 1622 3394 
Q 1922 3394 2156 3267 
Q 2391 3141 2538 2938 
L 2538 4581 
L 3097 4581 
L 3097 0 
L 2575 0 
z
M 797 1656 
Q 797 1019 1065 703 
Q 1334 388 1700 388 
Q 2069 388 2326 689 
Q 2584 991 2584 1609 
Q 2584 2291 2321 2609 
Q 2059 2928 1675 2928 
Q 1300 2928 1048 2622 
Q 797 2316 797 1656 
z
" transform="scale(0.015625)"/>
      <path id="ArialMT-6f" d="M 213 1659 
Q 213 2581 725 3025 
Q 1153 3394 1769 3394 
Q 2453 3394 2887 2945 
Q 3322 2497 3322 1706 
Q 3322 1066 3130 698 
Q 2938 331 2570 128 
Q 2203 -75 1769 -75 
Q 1072 -75 642 372 
Q 213 819 213 1659 
z
M 791 1659 
Q 791 1022 1069 705 
Q 1347 388 1769 388 
Q 2188 388 2466 706 
Q 2744 1025 2744 1678 
Q 2744 2294 2464 2611 
Q 2184 2928 1769 2928 
Q 1347 2928 1069 2612 
Q 791 2297 791 1659 
z
" transform="scale(0.015625)"/>
      <path id="ArialMT-6d" d="M 422 0 
L 422 3319 
L 925 3319 
L 925 2853 
Q 1081 3097 1340 3245 
Q 1600 3394 1931 3394 
Q 2300 3394 2536 3241 
Q 2772 3088 2869 2813 
Q 3263 3394 3894 3394 
Q 4388 3394 4653 3120 
Q 4919 2847 4919 2278 
L 4919 0 
L 4359 0 
L 4359 2091 
Q 4359 2428 4304 2576 
Q 4250 2725 4106 2815 
Q 3963 2906 3769 2906 
Q 3419 2906 3187 2673 
Q 2956 2441 2956 1928 
L 2956 0 
L 2394 0 
L 2394 2156 
Q 2394 2531 2256 2718 
Q 2119 2906 1806 2906 
Q 1569 2906 1367 2781 
Q 1166 2656 1075 2415 
Q 984 2175 984 1722 
L 984 0 
L 422 0 
z
" transform="scale(0.015625)"/>
      <path id="ArialMT-46" d="M 525 0 
L 525 4581 
L 3616 4581 
L 3616 4041 
L 1131 4041 
L 1131 2622 
L 3281 2622 
L 3281 2081 
L 1131 2081 
L 1131 0 
L 525 0 
z
" transform="scale(0.015625)"/>
      <path id="ArialMT-72" d="M 416 0 
L 416 3319 
L 922 3319 
L 922 2816 
Q 1116 3169 1280 3281 
Q 1444 3394 1641 3394 
Q 1925 3394 2219 3213 
L 2025 2691 
Q 1819 2813 1613 2813 
Q 1428 2813 1281 2702 
Q 1134 2591 1072 2394 
Q 978 2094 978 1738 
L 978 0 
L 416 0 
z
" transform="scale(0.015625)"/>
      <path id="ArialMT-65" d="M 2694 1069 
L 3275 997 
Q 3138 488 2766 206 
Q 2394 -75 1816 -75 
Q 1088 -75 661 373 
Q 234 822 234 1631 
Q 234 2469 665 2931 
Q 1097 3394 1784 3394 
Q 2450 3394 2872 2941 
Q 3294 2488 3294 1666 
Q 3294 1616 3291 1516 
L 816 1516 
Q 847 969 1125 678 
Q 1403 388 1819 388 
Q 2128 388 2347 550 
Q 2566 713 2694 1069 
z
M 847 1978 
L 2700 1978 
Q 2663 2397 2488 2606 
Q 2219 2931 1791 2931 
Q 1403 2931 1139 2672 
Q 875 2413 847 1978 
z
" transform="scale(0.015625)"/>
      <path id="ArialMT-73" d="M 197 991 
L 753 1078 
Q 800 744 1014 566 
Q 1228 388 1613 388 
Q 2000 388 2187 545 
Q 2375 703 2375 916 
Q 2375 1106 2209 1216 
Q 2094 1291 1634 1406 
Q 1016 1563 777 1677 
Q 538 1791 414 1992 
Q 291 2194 291 2438 
Q 291 2659 392 2848 
Q 494 3038 669 3163 
Q 800 3259 1026 3326 
Q 1253 3394 1513 3394 
Q 1903 3394 2198 3281 
Q 2494 3169 2634 2976 
Q 2775 2784 2828 2463 
L 2278 2388 
Q 2241 2644 2061 2787 
Q 1881 2931 1553 2931 
Q 1166 2931 1000 2803 
Q 834 2675 834 2503 
Q 834 2394 903 2306 
Q 972 2216 1119 2156 
Q 1203 2125 1616 2013 
Q 2213 1853 2448 1751 
Q 2684 1650 2818 1456 
Q 2953 1263 2953 975 
Q 2953 694 2789 445 
Q 2625 197 2315 61 
Q 2006 -75 1616 -75 
Q 969 -75 630 194 
Q 291 463 197 991 
z
" transform="scale(0.015625)"/>
      <path id="ArialMT-74" d="M 1650 503 
L 1731 6 
Q 1494 -44 1306 -44 
Q 1000 -44 831 53 
Q 663 150 594 308 
Q 525 466 525 972 
L 525 2881 
L 113 2881 
L 113 3319 
L 525 3319 
L 525 4141 
L 1084 4478 
L 1084 3319 
L 1650 3319 
L 1650 2881 
L 1084 2881 
L 1084 941 
Q 1084 700 1114 631 
Q 1144 563 1211 522 
Q 1278 481 1403 481 
Q 1497 481 1650 503 
z
" transform="scale(0.015625)"/>
      <path id="ArialMT-3a" d="M 578 2678 
L 578 3319 
L 1219 3319 
L 1219 2678 
L 578 2678 
z
M 578 0 
L 578 641 
L 1219 641 
L 1219 0 
L 578 0 
z
" transform="scale(0.015625)"/>
      <path id="ArialMT-76" d="M 1344 0 
L 81 3319 
L 675 3319 
L 1388 1331 
Q 1503 1009 1600 663 
Q 1675 925 1809 1294 
L 2547 3319 
L 3125 3319 
L 1869 0 
L 1344 0 
z
" transform="scale(0.015625)"/>
     </defs>
     <use xlink:href="#ArialMT-52"/>
     <use xlink:href="#ArialMT-61" transform="translate(72.216797 0)"/>
     <use xlink:href="#ArialMT-6e" transform="translate(127.832031 0)"/>
     <use xlink:href="#ArialMT-64" transform="translate(183.447266 0)"/>
     <use xlink:href="#ArialMT-6f" transform="translate(239.0625 0)"/>
     <use xlink:href="#ArialMT-6d" transform="translate(294.677734 0)"/>
     <use xlink:href="#ArialMT-20" transform="translate(377.978516 0)"/>
     <use xlink:href="#ArialMT-46" transform="translate(405.761719 0)"/>
     <use xlink:href="#ArialMT-6f" transform="translate(466.845703 0)"/>
     <use xlink:href="#ArialMT-72" transform="translate(522.460938 0)"/>
     <use xlink:href="#ArialMT-65" transform="translate(555.761719 0)"/>
     <use xlink:href="#ArialMT-73" transform="translate(611.376953 0)"/>
     <use xlink:href="#ArialMT-74" transform="translate(661.376953 0)"/>
     <use xlink:href="#ArialMT-3a" transform="translate(689.160156 0)"/>
     <use xlink:href="#ArialMT-20" transform="translate(716.943359 0)"/>
     <use xlink:href="#ArialMT-52" transform="translate(744.726562 0)"/>
     <use xlink:href="#ArialMT-4d" transform="translate(816.943359 0)"/>
     <use xlink:href="#ArialMT-53" transform="translate(900.244141 0)"/>
     <use xlink:href="#ArialMT-45" transform="translate(966.943359 0)"/>
     <use xlink:href="#ArialMT-20" transform="translate(1033.642578 0)"/>
     <use xlink:href="#ArialMT-76" transform="translate(1061.425781 0)"/>
     <use xlink:href="#ArialMT-73" transform="translate(1111.425781 0)"/>
     <use xlink:href="#ArialMT-20" transform="translate(1161.425781 0)"/>
     <use xlink:href="#ArialMT-41a" transform="translate(1189.208984 0)"/>
     <use xlink:href="#ArialMT-43e" transform="translate(1247.460938 0)"/>
     <use xlink:href="#ArialMT-43b" transform="translate(1300.826172 0)"/>
     <use xlink:href="#ArialMT-438" transform="translate(1359.175781 0)"/>
     <use xlink:href="#ArialMT-447" transform="translate(1415.035156 0)"/>
     <use xlink:href="#ArialMT-435" transform="translate(1467.134766 0)"/>
     <use xlink:href="#ArialMT-441" transform="translate(1522.75 0)"/>
     <use xlink:href="#ArialMT-442" transform="translate(1572.75 0)"/>
     <use xlink:href="#ArialMT-432" transform="translate(1618.550781 0)"/>
     <use xlink:href="#ArialMT-43e" transform="translate(1670.550781 0)"/>
     <use xlink:href="#ArialMT-20" transform="translate(1726.166016 0)"/>
     <use xlink:href="#ArialMT-434" transform="translate(1753.949219 0)"/>
     <use xlink:href="#ArialMT-435" transform="translate(1812.298828 0)"/>
     <use xlink:href="#ArialMT-440" transform="translate(1867.914062 0)"/>
     <use xlink:href="#ArialMT-435" transform="translate(1923.529297 0)"/>
     <use xlink:href="#ArialMT-432" transform="translate(1979.144531 0)"/>
     <use xlink:href="#ArialMT-44c" transform="translate(2032.269531 0)"/>
     <use xlink:href="#ArialMT-435" transform="translate(2084.369141 0)"/>
     <use xlink:href="#ArialMT-432" transform="translate(2139.984375 0)"/>
    </g>
   </g>
   <g id="legend_1">
    <g id="line2d_23">
     <path d="M 456.810625 37.385156 
L 467.810625 37.385156 
L 478.810625 37.385156 
" style="fill: none; stroke: #f77189; stroke-width: 2; stroke-linecap: round"/>
     <g>
      <use xlink:href="#m95fa36152b" x="467.810625" y="37.385156" style="fill: #f77189; stroke: #f77189"/>
     </g>
    </g>
    <g id="text_14">
     <!-- Validation -->
     <g style="fill: #262626" transform="translate(487.610625 41.235156) scale(0.11 -0.11)">
      <defs>
       <path id="ArialMT-56" d="M 1803 0 
L 28 4581 
L 684 4581 
L 1875 1253 
Q 2019 853 2116 503 
Q 2222 878 2363 1253 
L 3600 4581 
L 4219 4581 
L 2425 0 
L 1803 0 
z
" transform="scale(0.015625)"/>
       <path id="ArialMT-6c" d="M 409 0 
L 409 4581 
L 972 4581 
L 972 0 
L 409 0 
z
" transform="scale(0.015625)"/>
       <path id="ArialMT-69" d="M 425 3934 
L 425 4581 
L 988 4581 
L 988 3934 
L 425 3934 
z
M 425 0 
L 425 3319 
L 988 3319 
L 988 0 
L 425 0 
z
" transform="scale(0.015625)"/>
      </defs>
      <use xlink:href="#ArialMT-56"/>
      <use xlink:href="#ArialMT-61" transform="translate(59.324219 0)"/>
      <use xlink:href="#ArialMT-6c" transform="translate(114.939453 0)"/>
      <use xlink:href="#ArialMT-69" transform="translate(137.15625 0)"/>
      <use xlink:href="#ArialMT-64" transform="translate(159.373047 0)"/>
      <use xlink:href="#ArialMT-61" transform="translate(214.988281 0)"/>
      <use xlink:href="#ArialMT-74" transform="translate(270.603516 0)"/>
      <use xlink:href="#ArialMT-69" transform="translate(298.386719 0)"/>
      <use xlink:href="#ArialMT-6f" transform="translate(320.603516 0)"/>
      <use xlink:href="#ArialMT-6e" transform="translate(376.21875 0)"/>
     </g>
    </g>
    <g id="line2d_24">
     <path d="M 456.810625 52.945 
L 467.810625 52.945 
L 478.810625 52.945 
" style="fill: none; stroke: #bb9832; stroke-width: 2; stroke-linecap: round"/>
     <g>
      <use xlink:href="#m13df2a9e16" x="467.810625" y="52.945" style="fill: #bb9832; stroke: #bb9832; stroke-linejoin: miter"/>
     </g>
    </g>
    <g id="text_15">
     <!-- Test -->
     <g style="fill: #262626" transform="translate(487.610625 56.795) scale(0.11 -0.11)">
      <defs>
       <path id="ArialMT-54" d="M 1659 0 
L 1659 4041 
L 150 4041 
L 150 4581 
L 3781 4581 
L 3781 4041 
L 2266 4041 
L 2266 0 
L 1659 0 
z
" transform="scale(0.015625)"/>
      </defs>
      <use xlink:href="#ArialMT-54"/>
      <use xlink:href="#ArialMT-65" transform="translate(49.958984 0)"/>
      <use xlink:href="#ArialMT-73" transform="translate(105.574219 0)"/>
      <use xlink:href="#ArialMT-74" transform="translate(155.574219 0)"/>
     </g>
    </g>
   </g>
  </g>
  <g id="axes_2">
   <g id="patch_7">
    <path d="M 579.69 317.401562 
L 1065.66 317.401562 
L 1065.66 23.461562 
L 579.69 23.461562 
z
" style="fill: #eaeaf2"/>
   </g>
   <g id="matplotlib.axis_3">
    <g id="xtick_6">
     <g id="line2d_25">
      <path d="M 671.536005 317.401562 
L 671.536005 23.461562 
" clip-path="url(#pdca5d9bce5)" style="fill: none; stroke: #ffffff; stroke-opacity: 0.3; stroke-width: 0.8; stroke-linecap: round"/>
     </g>
     <g id="line2d_26"/>
     <g id="text_16">
      <!-- 20 -->
      <g style="fill: #262626" transform="translate(665.975067 328.059375) scale(0.1 -0.1)">
       <use xlink:href="#ArialMT-32"/>
       <use xlink:href="#ArialMT-30" transform="translate(55.615234 0)"/>
      </g>
     </g>
    </g>
    <g id="xtick_7">
     <g id="line2d_27">
      <path d="M 764.544617 317.401562 
L 764.544617 23.461562 
" clip-path="url(#pdca5d9bce5)" style="fill: none; stroke: #ffffff; stroke-opacity: 0.3; stroke-width: 0.8; stroke-linecap: round"/>
     </g>
     <g id="line2d_28"/>
     <g id="text_17">
      <!-- 40 -->
      <g style="fill: #262626" transform="translate(758.98368 328.059375) scale(0.1 -0.1)">
       <use xlink:href="#ArialMT-34"/>
       <use xlink:href="#ArialMT-30" transform="translate(55.615234 0)"/>
      </g>
     </g>
    </g>
    <g id="xtick_8">
     <g id="line2d_29">
      <path d="M 857.55323 317.401562 
L 857.55323 23.461562 
" clip-path="url(#pdca5d9bce5)" style="fill: none; stroke: #ffffff; stroke-opacity: 0.3; stroke-width: 0.8; stroke-linecap: round"/>
     </g>
     <g id="line2d_30"/>
     <g id="text_18">
      <!-- 60 -->
      <g style="fill: #262626" transform="translate(851.992292 328.059375) scale(0.1 -0.1)">
       <use xlink:href="#ArialMT-36"/>
       <use xlink:href="#ArialMT-30" transform="translate(55.615234 0)"/>
      </g>
     </g>
    </g>
    <g id="xtick_9">
     <g id="line2d_31">
      <path d="M 950.561842 317.401562 
L 950.561842 23.461562 
" clip-path="url(#pdca5d9bce5)" style="fill: none; stroke: #ffffff; stroke-opacity: 0.3; stroke-width: 0.8; stroke-linecap: round"/>
     </g>
     <g id="line2d_32"/>
     <g id="text_19">
      <!-- 80 -->
      <g style="fill: #262626" transform="translate(945.000905 328.059375) scale(0.1 -0.1)">
       <use xlink:href="#ArialMT-38"/>
       <use xlink:href="#ArialMT-30" transform="translate(55.615234 0)"/>
      </g>
     </g>
    </g>
    <g id="xtick_10">
     <g id="line2d_33">
      <path d="M 1043.570455 317.401562 
L 1043.570455 23.461562 
" clip-path="url(#pdca5d9bce5)" style="fill: none; stroke: #ffffff; stroke-opacity: 0.3; stroke-width: 0.8; stroke-linecap: round"/>
     </g>
     <g id="line2d_34"/>
     <g id="text_20">
      <!-- 100 -->
      <g style="fill: #262626" transform="translate(1035.229048 328.059375) scale(0.1 -0.1)">
       <use xlink:href="#ArialMT-31"/>
       <use xlink:href="#ArialMT-30" transform="translate(55.615234 0)"/>
       <use xlink:href="#ArialMT-30" transform="translate(111.230469 0)"/>
      </g>
     </g>
    </g>
    <g id="text_21">
     <!-- Количество деревьев -->
     <g style="fill: #262626" transform="translate(762.445313 342.641875) scale(0.12 -0.12)">
      <use xlink:href="#ArialMT-41a"/>
      <use xlink:href="#ArialMT-43e" transform="translate(58.251953 0)"/>
      <use xlink:href="#ArialMT-43b" transform="translate(111.617188 0)"/>
      <use xlink:href="#ArialMT-438" transform="translate(169.966797 0)"/>
      <use xlink:href="#ArialMT-447" transform="translate(225.826172 0)"/>
      <use xlink:href="#ArialMT-435" transform="translate(277.925781 0)"/>
      <use xlink:href="#ArialMT-441" transform="translate(333.541016 0)"/>
      <use xlink:href="#ArialMT-442" transform="translate(383.541016 0)"/>
      <use xlink:href="#ArialMT-432" transform="translate(429.341797 0)"/>
      <use xlink:href="#ArialMT-43e" transform="translate(481.341797 0)"/>
      <use xlink:href="#ArialMT-20" transform="translate(536.957031 0)"/>
      <use xlink:href="#ArialMT-434" transform="translate(564.740234 0)"/>
      <use xlink:href="#ArialMT-435" transform="translate(623.089844 0)"/>
      <use xlink:href="#ArialMT-440" transform="translate(678.705078 0)"/>
      <use xlink:href="#ArialMT-435" transform="translate(734.320312 0)"/>
      <use xlink:href="#ArialMT-432" transform="translate(789.935547 0)"/>
      <use xlink:href="#ArialMT-44c" transform="translate(843.060547 0)"/>
      <use xlink:href="#ArialMT-435" transform="translate(895.160156 0)"/>
      <use xlink:href="#ArialMT-432" transform="translate(950.775391 0)"/>
     </g>
    </g>
   </g>
   <g id="matplotlib.axis_4">
    <g id="ytick_6">
     <g id="line2d_35">
      <path d="M 579.69 275.326864 
L 1065.66 275.326864 
" clip-path="url(#pdca5d9bce5)" style="fill: none; stroke: #ffffff; stroke-opacity: 0.3; stroke-width: 0.8; stroke-linecap: round"/>
     </g>
     <g id="line2d_36"/>
     <g id="text_22">
      <!-- 1 -->
      <g style="fill: #262626" transform="translate(570.629063 278.905771) scale(0.1 -0.1)">
       <use xlink:href="#ArialMT-31"/>
      </g>
     </g>
    </g>
    <g id="ytick_7">
     <g id="line2d_37">
      <path d="M 579.69 232.227239 
L 1065.66 232.227239 
" clip-path="url(#pdca5d9bce5)" style="fill: none; stroke: #ffffff; stroke-opacity: 0.3; stroke-width: 0.8; stroke-linecap: round"/>
     </g>
     <g id="line2d_38"/>
     <g id="text_23">
      <!-- 2 -->
      <g style="fill: #262626" transform="translate(570.629063 235.806145) scale(0.1 -0.1)">
       <use xlink:href="#ArialMT-32"/>
      </g>
     </g>
    </g>
    <g id="ytick_8">
     <g id="line2d_39">
      <path d="M 579.69 189.127614 
L 1065.66 189.127614 
" clip-path="url(#pdca5d9bce5)" style="fill: none; stroke: #ffffff; stroke-opacity: 0.3; stroke-width: 0.8; stroke-linecap: round"/>
     </g>
     <g id="line2d_40"/>
     <g id="text_24">
      <!-- 3 -->
      <g style="fill: #262626" transform="translate(570.629063 192.70652) scale(0.1 -0.1)">
       <use xlink:href="#ArialMT-33"/>
      </g>
     </g>
    </g>
    <g id="ytick_9">
     <g id="line2d_41">
      <path d="M 579.69 146.027989 
L 1065.66 146.027989 
" clip-path="url(#pdca5d9bce5)" style="fill: none; stroke: #ffffff; stroke-opacity: 0.3; stroke-width: 0.8; stroke-linecap: round"/>
     </g>
     <g id="line2d_42"/>
     <g id="text_25">
      <!-- 4 -->
      <g style="fill: #262626" transform="translate(570.629063 149.606895) scale(0.1 -0.1)">
       <use xlink:href="#ArialMT-34"/>
      </g>
     </g>
    </g>
    <g id="ytick_10">
     <g id="line2d_43">
      <path d="M 579.69 102.928364 
L 1065.66 102.928364 
" clip-path="url(#pdca5d9bce5)" style="fill: none; stroke: #ffffff; stroke-opacity: 0.3; stroke-width: 0.8; stroke-linecap: round"/>
     </g>
     <g id="line2d_44"/>
     <g id="text_26">
      <!-- 5 -->
      <g style="fill: #262626" transform="translate(570.629063 106.50727) scale(0.1 -0.1)">
       <use xlink:href="#ArialMT-35"/>
      </g>
     </g>
    </g>
    <g id="ytick_11">
     <g id="line2d_45">
      <path d="M 579.69 59.828738 
L 1065.66 59.828738 
" clip-path="url(#pdca5d9bce5)" style="fill: none; stroke: #ffffff; stroke-opacity: 0.3; stroke-width: 0.8; stroke-linecap: round"/>
     </g>
     <g id="line2d_46"/>
     <g id="text_27">
      <!-- 6 -->
      <g style="fill: #262626" transform="translate(570.629063 63.407645) scale(0.1 -0.1)">
       <use xlink:href="#ArialMT-36"/>
      </g>
     </g>
    </g>
    <g id="text_28">
     <!-- Время обучения (сек) -->
     <g style="fill: #262626" transform="translate(564.103438 230.786875) rotate(-90) scale(0.12 -0.12)">
      <defs>
       <path id="ArialMT-412" d="M 469 0 
L 469 4581 
L 2188 4581 
Q 2713 4581 3030 4442 
Q 3347 4303 3526 4014 
Q 3706 3725 3706 3409 
Q 3706 3116 3547 2856 
Q 3388 2597 3066 2438 
Q 3481 2316 3704 2022 
Q 3928 1728 3928 1328 
Q 3928 1006 3792 729 
Q 3656 453 3456 303 
Q 3256 153 2954 76 
Q 2653 0 2216 0 
L 469 0 
z
M 1075 2656 
L 2066 2656 
Q 2469 2656 2644 2709 
Q 2875 2778 2992 2937 
Q 3109 3097 3109 3338 
Q 3109 3566 3000 3739 
Q 2891 3913 2687 3977 
Q 2484 4041 1991 4041 
L 1075 4041 
L 1075 2656 
z
M 1075 541 
L 2216 541 
Q 2509 541 2628 563 
Q 2838 600 2978 687 
Q 3119 775 3209 942 
Q 3300 1109 3300 1328 
Q 3300 1584 3169 1773 
Q 3038 1963 2805 2039 
Q 2572 2116 2134 2116 
L 1075 2116 
L 1075 541 
z
" transform="scale(0.015625)"/>
       <path id="ArialMT-43c" d="M 438 3319 
L 1313 3319 
L 2184 663 
L 3153 3319 
L 3963 3319 
L 3963 0 
L 3400 0 
L 3400 2672 
L 2419 0 
L 1916 0 
L 988 2800 
L 988 0 
L 438 0 
L 438 3319 
z
" transform="scale(0.015625)"/>
       <path id="ArialMT-44f" d="M 3034 3319 
L 3034 0 
L 2475 0 
L 2475 1294 
L 2150 1294 
Q 1853 1294 1708 1217 
Q 1563 1141 1284 725 
L 794 0 
L 97 0 
L 703 894 
Q 981 1303 1256 1356 
Q 775 1422 542 1703 
Q 309 1984 309 2350 
Q 309 2781 614 3050 
Q 919 3319 1497 3319 
L 3034 3319 
z
M 2475 2853 
L 1675 2853 
Q 1172 2853 1026 2697 
Q 881 2541 881 2331 
Q 881 2034 1095 1895 
Q 1309 1756 1853 1756 
L 2475 1756 
L 2475 2853 
z
" transform="scale(0.015625)"/>
       <path id="ArialMT-431" d="M 2853 4691 
L 3350 4684 
Q 3316 4350 3202 4219 
Q 3088 4088 2908 4050 
Q 2728 4013 2203 4013 
Q 1506 4013 1253 3878 
Q 1000 3744 889 3448 
Q 778 3153 766 2688 
Q 978 3003 1262 3161 
Q 1547 3319 1903 3319 
Q 2556 3319 2984 2870 
Q 3413 2422 3413 1656 
Q 3413 1075 3197 703 
Q 2981 331 2686 128 
Q 2391 -75 1881 -75 
Q 1291 -75 962 195 
Q 634 466 459 887 
Q 284 1309 284 2356 
Q 284 3672 729 4128 
Q 1175 4584 2100 4584 
Q 2675 4584 2753 4603 
Q 2831 4622 2853 4691 
z
M 2825 1672 
Q 2825 2191 2579 2522 
Q 2334 2853 1888 2853 
Q 1422 2853 1169 2503 
Q 916 2153 916 1569 
Q 916 991 1195 684 
Q 1475 378 1884 378 
Q 2303 378 2564 733 
Q 2825 1088 2825 1672 
z
" transform="scale(0.015625)"/>
       <path id="ArialMT-443" d="M 397 -1278 
L 334 -750 
Q 519 -800 656 -800 
Q 844 -800 956 -737 
Q 1069 -675 1141 -563 
Q 1194 -478 1313 -144 
Q 1328 -97 1363 -6 
L 103 3319 
L 709 3319 
L 1400 1397 
Q 1534 1031 1641 628 
Q 1738 1016 1872 1384 
L 2581 3319 
L 3144 3319 
L 1881 -56 
Q 1678 -603 1566 -809 
Q 1416 -1088 1222 -1217 
Q 1028 -1347 759 -1347 
Q 597 -1347 397 -1278 
z
" transform="scale(0.015625)"/>
       <path id="ArialMT-43d" d="M 425 3319 
L 988 3319 
L 988 1938 
L 2547 1938 
L 2547 3319 
L 3109 3319 
L 3109 0 
L 2547 0 
L 2547 1472 
L 988 1472 
L 988 0 
L 425 0 
L 425 3319 
z
" transform="scale(0.015625)"/>
       <path id="ArialMT-28" d="M 1497 -1347 
Q 1031 -759 709 28 
Q 388 816 388 1659 
Q 388 2403 628 3084 
Q 909 3875 1497 4659 
L 1900 4659 
Q 1522 4009 1400 3731 
Q 1209 3300 1100 2831 
Q 966 2247 966 1656 
Q 966 153 1900 -1347 
L 1497 -1347 
z
" transform="scale(0.015625)"/>
       <path id="ArialMT-43a" d="M 419 3319 
L 981 3319 
L 981 1884 
Q 1250 1884 1358 1987 
Q 1466 2091 1675 2588 
Q 1841 2981 1944 3106 
Q 2047 3231 2181 3275 
Q 2316 3319 2613 3319 
L 2725 3319 
L 2725 2853 
L 2569 2856 
Q 2347 2856 2284 2791 
Q 2219 2722 2084 2381 
Q 1956 2056 1850 1931 
Q 1744 1806 1522 1703 
Q 1884 1606 2234 1028 
L 2850 0 
L 2231 0 
L 1631 1028 
Q 1447 1338 1309 1436 
Q 1172 1534 981 1534 
L 981 0 
L 419 0 
L 419 3319 
z
" transform="scale(0.015625)"/>
       <path id="ArialMT-29" d="M 791 -1347 
L 388 -1347 
Q 1322 153 1322 1656 
Q 1322 2244 1188 2822 
Q 1081 3291 891 3722 
Q 769 4003 388 4659 
L 791 4659 
Q 1378 3875 1659 3084 
Q 1900 2403 1900 1659 
Q 1900 816 1576 28 
Q 1253 -759 791 -1347 
z
" transform="scale(0.015625)"/>
      </defs>
      <use xlink:href="#ArialMT-412"/>
      <use xlink:href="#ArialMT-440" transform="translate(66.699219 0)"/>
      <use xlink:href="#ArialMT-435" transform="translate(122.314453 0)"/>
      <use xlink:href="#ArialMT-43c" transform="translate(177.929688 0)"/>
      <use xlink:href="#ArialMT-44f" transform="translate(246.679688 0)"/>
      <use xlink:href="#ArialMT-20" transform="translate(300.830078 0)"/>
      <use xlink:href="#ArialMT-43e" transform="translate(328.613281 0)"/>
      <use xlink:href="#ArialMT-431" transform="translate(384.228516 0)"/>
      <use xlink:href="#ArialMT-443" transform="translate(439.253906 0)"/>
      <use xlink:href="#ArialMT-447" transform="translate(489.253906 0)"/>
      <use xlink:href="#ArialMT-435" transform="translate(541.353516 0)"/>
      <use xlink:href="#ArialMT-43d" transform="translate(596.96875 0)"/>
      <use xlink:href="#ArialMT-438" transform="translate(652.193359 0)"/>
      <use xlink:href="#ArialMT-44f" transform="translate(708.052734 0)"/>
      <use xlink:href="#ArialMT-20" transform="translate(762.203125 0)"/>
      <use xlink:href="#ArialMT-28" transform="translate(789.986328 0)"/>
      <use xlink:href="#ArialMT-441" transform="translate(823.287109 0)"/>
      <use xlink:href="#ArialMT-435" transform="translate(873.287109 0)"/>
      <use xlink:href="#ArialMT-43a" transform="translate(928.902344 0)"/>
      <use xlink:href="#ArialMT-29" transform="translate(972.652344 0)"/>
     </g>
    </g>
   </g>
   <g id="line2d_47">
    <path d="M 601.779545 304.040653 
L 625.031699 290.047187 
L 671.536005 259.4222 
L 718.040311 233.219055 
L 811.048923 177.638553 
L 927.309689 95.704264 
L 1043.570455 36.822472 
" clip-path="url(#pdca5d9bce5)" style="fill: none; stroke: #008000; stroke-width: 2; stroke-linecap: round"/>
    <defs>
     <path id="m11b6ea4b1d" d="M 0 3 
C 0.795609 3 1.55874 2.683901 2.12132 2.12132 
C 2.683901 1.55874 3 0.795609 3 0 
C 3 -0.795609 2.683901 -1.55874 2.12132 -2.12132 
C 1.55874 -2.683901 0.795609 -3 0 -3 
C -0.795609 -3 -1.55874 -2.683901 -2.12132 -2.12132 
C -2.683901 -1.55874 -3 -0.795609 -3 0 
C -3 0.795609 -2.683901 1.55874 -2.12132 2.12132 
C -1.55874 2.683901 -0.795609 3 0 3 
z
" style="stroke: #008000"/>
    </defs>
    <g clip-path="url(#pdca5d9bce5)">
     <use xlink:href="#m11b6ea4b1d" x="601.779545" y="304.040653" style="fill: #008000; stroke: #008000"/>
     <use xlink:href="#m11b6ea4b1d" x="625.031699" y="290.047187" style="fill: #008000; stroke: #008000"/>
     <use xlink:href="#m11b6ea4b1d" x="671.536005" y="259.4222" style="fill: #008000; stroke: #008000"/>
     <use xlink:href="#m11b6ea4b1d" x="718.040311" y="233.219055" style="fill: #008000; stroke: #008000"/>
     <use xlink:href="#m11b6ea4b1d" x="811.048923" y="177.638553" style="fill: #008000; stroke: #008000"/>
     <use xlink:href="#m11b6ea4b1d" x="927.309689" y="95.704264" style="fill: #008000; stroke: #008000"/>
     <use xlink:href="#m11b6ea4b1d" x="1043.570455" y="36.822472" style="fill: #008000; stroke: #008000"/>
    </g>
   </g>
   <g id="patch_8">
    <path d="M 579.69 317.401562 
L 579.69 23.461562 
" style="fill: none"/>
   </g>
   <g id="patch_9">
    <path d="M 1065.66 317.401562 
L 1065.66 23.461562 
" style="fill: none"/>
   </g>
   <g id="patch_10">
    <path d="M 579.69 317.401562 
L 1065.66 317.401562 
" style="fill: none"/>
   </g>
   <g id="patch_11">
    <path d="M 579.69 23.461562 
L 1065.66 23.461562 
" style="fill: none"/>
   </g>
   <g id="text_29">
    <!-- Random Forest: Время обучения vs Количество деревьев -->
    <g style="fill: #262626" transform="translate(636.0375 17.461562) scale(0.14 -0.14)">
     <use xlink:href="#ArialMT-52"/>
     <use xlink:href="#ArialMT-61" transform="translate(72.216797 0)"/>
     <use xlink:href="#ArialMT-6e" transform="translate(127.832031 0)"/>
     <use xlink:href="#ArialMT-64" transform="translate(183.447266 0)"/>
     <use xlink:href="#ArialMT-6f" transform="translate(239.0625 0)"/>
     <use xlink:href="#ArialMT-6d" transform="translate(294.677734 0)"/>
     <use xlink:href="#ArialMT-20" transform="translate(377.978516 0)"/>
     <use xlink:href="#ArialMT-46" transform="translate(405.761719 0)"/>
     <use xlink:href="#ArialMT-6f" transform="translate(466.845703 0)"/>
     <use xlink:href="#ArialMT-72" transform="translate(522.460938 0)"/>
     <use xlink:href="#ArialMT-65" transform="translate(555.761719 0)"/>
     <use xlink:href="#ArialMT-73" transform="translate(611.376953 0)"/>
     <use xlink:href="#ArialMT-74" transform="translate(661.376953 0)"/>
     <use xlink:href="#ArialMT-3a" transform="translate(689.160156 0)"/>
     <use xlink:href="#ArialMT-20" transform="translate(716.943359 0)"/>
     <use xlink:href="#ArialMT-412" transform="translate(744.726562 0)"/>
     <use xlink:href="#ArialMT-440" transform="translate(811.425781 0)"/>
     <use xlink:href="#ArialMT-435" transform="translate(867.041016 0)"/>
     <use xlink:href="#ArialMT-43c" transform="translate(922.65625 0)"/>
     <use xlink:href="#ArialMT-44f" transform="translate(991.40625 0)"/>
     <use xlink:href="#ArialMT-20" transform="translate(1045.556641 0)"/>
     <use xlink:href="#ArialMT-43e" transform="translate(1073.339844 0)"/>
     <use xlink:href="#ArialMT-431" transform="translate(1128.955078 0)"/>
     <use xlink:href="#ArialMT-443" transform="translate(1183.980469 0)"/>
     <use xlink:href="#ArialMT-447" transform="translate(1233.980469 0)"/>
     <use xlink:href="#ArialMT-435" transform="translate(1286.080078 0)"/>
     <use xlink:href="#ArialMT-43d" transform="translate(1341.695312 0)"/>
     <use xlink:href="#ArialMT-438" transform="translate(1396.919922 0)"/>
     <use xlink:href="#ArialMT-44f" transform="translate(1452.779297 0)"/>
     <use xlink:href="#ArialMT-20" transform="translate(1506.929688 0)"/>
     <use xlink:href="#ArialMT-76" transform="translate(1534.712891 0)"/>
     <use xlink:href="#ArialMT-73" transform="translate(1584.712891 0)"/>
     <use xlink:href="#ArialMT-20" transform="translate(1634.712891 0)"/>
     <use xlink:href="#ArialMT-41a" transform="translate(1662.496094 0)"/>
     <use xlink:href="#ArialMT-43e" transform="translate(1720.748047 0)"/>
     <use xlink:href="#ArialMT-43b" transform="translate(1774.113281 0)"/>
     <use xlink:href="#ArialMT-438" transform="translate(1832.462891 0)"/>
     <use xlink:href="#ArialMT-447" transform="translate(1888.322266 0)"/>
     <use xlink:href="#ArialMT-435" transform="translate(1940.421875 0)"/>
     <use xlink:href="#ArialMT-441" transform="translate(1996.037109 0)"/>
     <use xlink:href="#ArialMT-442" transform="translate(2046.037109 0)"/>
     <use xlink:href="#ArialMT-432" transform="translate(2091.837891 0)"/>
     <use xlink:href="#ArialMT-43e" transform="translate(2143.837891 0)"/>
     <use xlink:href="#ArialMT-20" transform="translate(2199.453125 0)"/>
     <use xlink:href="#ArialMT-434" transform="translate(2227.236328 0)"/>
     <use xlink:href="#ArialMT-435" transform="translate(2285.585938 0)"/>
     <use xlink:href="#ArialMT-440" transform="translate(2341.201172 0)"/>
     <use xlink:href="#ArialMT-435" transform="translate(2396.816406 0)"/>
     <use xlink:href="#ArialMT-432" transform="translate(2452.431641 0)"/>
     <use xlink:href="#ArialMT-44c" transform="translate(2505.556641 0)"/>
     <use xlink:href="#ArialMT-435" transform="translate(2557.65625 0)"/>
     <use xlink:href="#ArialMT-432" transform="translate(2613.271484 0)"/>
    </g>
   </g>
  </g>
 </g>
 <defs>
  <clipPath id="p058792ebc8">
   <rect x="59.04" y="23.461562" width="485.97" height="293.94"/>
  </clipPath>
  <clipPath id="pdca5d9bce5">
   <rect x="579.69" y="23.461562" width="485.97" height="293.94"/>
  </clipPath>
 </defs>
</svg>
