<?xml version="1.0" standalone="no"?>
<!DOCTYPE svg PUBLIC "-//W3C//DTD SVG 20010904//EN"
 "http://www.w3.org/TR/2001/REC-SVG-20010904/DTD/svg10.dtd">
<svg version="1.0" xmlns="http://www.w3.org/2000/svg"
 width="512.000000pt" height="512.000000pt" viewBox="0 0 512.000000 512.000000"
 preserveAspectRatio="xMidYMid meet">

<g transform="translate(0.000000,512.000000) scale(0.100000,-0.100000)"
fill="#000000" stroke="none">
<path d="M1375 4946 c-37 -17 -70 -52 -84 -89 -6 -16 -11 -106 -11 -211 l0
-183 -52 -12 c-76 -17 -223 -92 -295 -151 -34 -28 -85 -79 -113 -113 -59 -72
-134 -219 -151 -294 l-12 -52 -198 -3 c-216 -3 -224 -5 -273 -72 -29 -39 -29
-133 0 -172 49 -66 58 -69 265 -72 l189 -3 0 -119 0 -119 -189 -3 c-173 -3
-192 -5 -217 -24 -53 -39 -69 -71 -69 -134 0 -63 16 -95 69 -134 25 -19 44
-21 217 -24 l189 -3 0 -119 0 -119 -189 -3 c-207 -3 -216 -6 -265 -72 -29 -39
-29 -133 0 -172 49 -66 58 -69 265 -72 l189 -3 0 -119 0 -119 -189 -3 c-207
-3 -216 -6 -265 -72 -29 -39 -29 -133 0 -172 49 -66 58 -69 265 -72 l189 -3 0
-119 0 -119 -189 -3 c-207 -3 -216 -6 -265 -72 -29 -39 -29 -133 0 -172 49
-67 57 -69 273 -72 l198 -3 12 -52 c31 -137 150 -316 273 -412 81 -63 208
-128 285 -146 l52 -12 3 -198 c3 -181 5 -200 24 -225 39 -53 71 -69 134 -69
63 0 95 16 134 69 19 25 21 44 24 217 l3 189 119 0 119 0 3 -189 c3 -207 6
-216 72 -265 39 -29 133 -29 172 0 66 49 69 58 72 265 l3 189 119 0 119 0 3
-189 c3 -207 6 -216 72 -265 39 -29 133 -29 172 0 66 49 69 58 72 265 l3 189
119 0 119 0 3 -189 c3 -207 6 -216 72 -265 39 -29 133 -29 172 0 66 49 69 58
72 265 l3 189 119 0 119 0 3 -189 c3 -207 6 -216 72 -265 39 -29 133 -29 172
0 67 49 69 57 72 273 l3 198 50 11 c140 33 312 146 411 270 65 82 131 210 149
289 l12 52 198 3 c216 3 224 5 273 72 29 39 29 133 0 172 -49 66 -58 69 -265
72 l-189 3 0 119 0 119 189 3 c173 3 192 5 217 24 53 39 69 71 69 134 0 63
-16 95 -69 134 -26 20 -40 21 -326 21 -286 0 -300 -1 -326 -21 -15 -11 -37
-33 -48 -48 -20 -26 -21 -44 -26 -389 -5 -335 -7 -366 -26 -417 -60 -159 -193
-276 -352 -309 -74 -15 -2370 -15 -2444 0 -178 37 -330 189 -367 367 -15 74
-15 2370 0 2444 37 178 189 330 367 367 37 8 409 11 1222 11 813 0 1185 -3
1222 -11 159 -33 292 -150 352 -309 20 -53 21 -76 26 -697 5 -628 5 -642 26
-669 11 -15 33 -37 48 -48 26 -20 40 -21 326 -21 286 0 300 1 326 21 53 39 69
71 69 134 0 63 -16 95 -69 134 -25 19 -44 21 -217 24 l-189 3 0 119 0 119 189
3 c207 3 216 6 265 72 29 39 29 133 0 172 -49 66 -58 69 -265 72 l-189 3 0
119 0 119 189 3 c207 3 216 6 265 72 29 39 29 133 0 172 -49 67 -57 69 -273
72 l-198 3 -12 52 c-18 79 -84 207 -149 289 -99 124 -271 237 -411 270 l-50
11 -3 198 c-3 216 -5 224 -72 273 -39 29 -133 29 -172 0 -66 -49 -69 -58 -72
-265 l-3 -189 -119 0 -119 0 -3 189 c-3 207 -6 216 -72 265 -39 29 -133 29
-172 0 -66 -49 -69 -58 -72 -265 l-3 -189 -119 0 -119 0 -3 189 c-3 207 -6
216 -72 265 -39 29 -133 29 -172 0 -66 -49 -69 -58 -72 -265 l-3 -189 -119 0
-119 0 -3 189 c-3 207 -6 216 -72 265 -39 29 -133 29 -172 0 -66 -49 -69 -58
-72 -265 l-3 -189 -119 0 -119 0 -3 189 c-3 207 -6 216 -70 264 -34 25 -113
32 -153 13z"/>
<path d="M1375 3826 c-41 -18 -83 -69 -90 -109 -3 -18 -4 -550 -3 -1184 3
-1145 3 -1152 24 -1179 11 -15 33 -37 48 -48 27 -21 31 -21 1206 -21 1175 0
1179 0 1206 21 15 11 37 33 48 48 21 27 21 31 21 1206 0 1175 0 1179 -21 1206
-11 15 -33 37 -48 48 -27 21 -33 21 -1194 23 -955 2 -1173 0 -1197 -11z m1129
-679 c21 -15 428 -1131 424 -1161 -3 -20 -10 -21 -143 -24 -165 -3 -156 -8
-201 118 l-29 80 -226 0 -226 0 -28 -77 c-47 -131 -33 -123 -195 -123 -127 0
-140 2 -149 19 -9 15 31 134 193 581 112 308 212 570 221 581 17 17 32 19 180
19 115 0 166 -4 179 -13z m886 -6 c6 -13 10 -213 10 -581 0 -368 -4 -568 -10
-581 -10 -17 -23 -19 -161 -19 l-149 0 -10 26 c-6 15 -10 242 -10 574 0 332 4
559 10 574 l10 26 149 0 c138 0 151 -2 161 -19z"/>
<path d="M2253 2642 c-40 -114 -73 -211 -73 -215 0 -4 68 -7 151 -7 117 0 150
3 147 13 -3 6 -35 100 -73 207 -37 107 -70 198 -74 202 -3 4 -39 -86 -78 -200z"/>
</g>
</svg>
