<?xml version="1.0" standalone="no"?>
<!DOCTYPE svg PUBLIC "-//W3C//DTD SVG 20010904//EN"
 "http://www.w3.org/TR/2001/REC-SVG-20010904/DTD/svg10.dtd">
<svg version="1.0" xmlns="http://www.w3.org/2000/svg"
 width="512.000000pt" height="512.000000pt" viewBox="0 0 512.000000 512.000000"
 preserveAspectRatio="xMidYMid meet">

<g transform="translate(0.000000,512.000000) scale(0.100000,-0.100000)"
fill="#000000" stroke="none">
<path d="M1213 4466 c-368 -184 -678 -344 -690 -357 -12 -13 -26 -37 -32 -52
-15 -39 -15 -1675 0 -1714 6 -15 20 -39 32 -52 12 -13 322 -173 690 -357 538
-269 675 -334 707 -334 32 0 169 65 707 334 368 184 678 344 690 357 12 13 26
37 32 52 8 19 11 294 11 857 0 563 -3 838 -11 857 -6 15 -20 39 -32 52 -12 13
-322 173 -690 357 -538 269 -675 334 -707 334 -32 0 -169 -65 -707 -334z
m1162 -233 c250 -126 455 -230 455 -233 0 -3 -205 -107 -455 -233 l-455 -227
-455 227 c-250 126 -455 230 -455 233 0 4 894 456 907 459 2 1 208 -101 458
-226z m-615 -1593 l0 -620 -480 240 -480 240 0 620 0 620 480 -240 480 -240 0
-620z m1280 480 l0 -620 -480 -240 -480 -240 0 620 0 620 478 239 c262 132
478 240 480 240 1 1 2 -278 2 -619z"/>
<path d="M3905 4790 c-253 -39 -506 -125 -792 -269 -57 -28 -103 -55 -103 -59
0 -10 326 -172 345 -172 9 0 32 8 53 19 20 10 82 35 137 56 391 147 688 152
832 13 38 -37 80 -126 94 -205 44 -231 -79 -649 -310 -1058 -501 -885 -1441
-1797 -2307 -2236 -477 -242 -903 -305 -1084 -161 -122 98 -159 296 -105 557
25 121 96 328 165 477 34 73 64 138 67 145 4 11 -274 159 -283 150 -9 -9 -106
-223 -143 -313 -53 -135 -104 -307 -127 -429 -26 -137 -26 -361 -1 -468 59
-249 245 -435 494 -494 115 -27 332 -24 480 5 669 134 1505 674 2253 1457 646
676 1081 1395 1201 1985 30 147 33 385 6 495 -61 244 -236 423 -474 486 -90
24 -301 34 -398 19z"/>
</g>
</svg>
