<svg width="31" height="34" viewBox="0 0 31 34" fill="none" xmlns="http://www.w3.org/2000/svg">
<path d="M12.4747 5.66667H19.2682C19.2682 4.72736 18.9104 3.82652 18.2733 3.16233C17.6363 2.49814 16.7724 2.125 15.8715 2.125C14.9706 2.125 14.1066 2.49814 13.4696 3.16233C12.8326 3.82652 12.4747 4.72736 12.4747 5.66667ZM10.4367 5.66667C10.4367 4.16377 11.0093 2.72243 12.0285 1.65973C13.0477 0.597022 14.4301 0 15.8715 0C17.3129 0 18.6952 0.597022 19.7145 1.65973C20.7337 2.72243 21.3063 4.16377 21.3063 5.66667H29.7981C30.0684 5.66667 30.3276 5.77861 30.5187 5.97787C30.7098 6.17712 30.8172 6.44737 30.8172 6.72917C30.8172 7.01096 30.7098 7.28121 30.5187 7.48047C30.3276 7.67973 30.0684 7.79167 29.7981 7.79167H28.0183L26.3647 28.4792C26.2444 29.9842 25.5861 31.3871 24.5203 32.4097C23.4545 33.4323 22.059 33.9999 20.6106 34H11.1323C9.68395 33.9999 8.28849 33.4323 7.22268 32.4097C6.15687 31.3871 5.49854 29.9842 5.37824 28.4792L3.7247 7.79167H1.94481C1.67454 7.79167 1.41535 7.67973 1.22425 7.48047C1.03314 7.28121 0.925781 7.01096 0.925781 6.72917C0.925781 6.44737 1.03314 6.17712 1.22425 5.97787C1.41535 5.77861 1.67454 5.66667 1.94481 5.66667H10.4367ZM7.4095 28.3022C7.4872 29.276 7.91306 30.1838 8.60263 30.8456C9.2922 31.5074 10.1951 31.8748 11.1323 31.875H20.6106C21.5478 31.8748 22.4507 31.5074 23.1403 30.8456C23.8299 30.1838 24.2558 29.276 24.3335 28.3022L25.9748 7.79167H5.76955L7.4095 28.3022ZM12.8144 12.75C13.0847 12.75 13.3439 12.8619 13.535 13.0612C13.7261 13.2605 13.8334 13.5307 13.8334 13.8125V25.8542C13.8334 26.136 13.7261 26.4062 13.535 26.6055C13.3439 26.8047 13.0847 26.9167 12.8144 26.9167C12.5441 26.9167 12.2849 26.8047 12.0938 26.6055C11.9027 26.4062 11.7954 26.136 11.7954 25.8542V13.8125C11.7954 13.5307 11.9027 13.2605 12.0938 13.0612C12.2849 12.8619 12.5441 12.75 12.8144 12.75ZM19.9476 13.8125C19.9476 13.5307 19.8402 13.2605 19.6491 13.0612C19.458 12.8619 19.1988 12.75 18.9286 12.75C18.6583 12.75 18.3991 12.8619 18.208 13.0612C18.0169 13.2605 17.9095 13.5307 17.9095 13.8125V25.8542C17.9095 26.136 18.0169 26.4062 18.208 26.6055C18.3991 26.8047 18.6583 26.9167 18.9286 26.9167C19.1988 26.9167 19.458 26.8047 19.6491 26.6055C19.8402 26.4062 19.9476 26.136 19.9476 25.8542V13.8125Z" fill="#C50C0F"/>
</svg>
