<svg viewBox="0 0 40 40" fill="none" xmlns="http://www.w3.org/2000/svg">
<path d="M9.33594 4.71831C8.375 4.96049 7.45312 5.74174 7.09375 6.61674L6.91406 7.06987V19.9996V32.9292L7.09375 33.3824C7.33594 33.9683 8.01562 34.7105 8.59375 34.9996C9.375 35.398 9.48438 35.398 16.2891 35.3746C22.3359 35.3511 22.625 35.3433 22.8359 35.2027C23.2188 34.9449 23.3906 34.6167 23.3906 34.1636C23.3906 33.7183 23.2578 33.4605 22.8594 33.1714C22.6484 33.0074 22.5547 33.0074 16.1562 32.9683L9.67188 32.9292L9.48438 32.7105L9.29688 32.4917V19.9917V7.48393L9.52344 7.25737L9.75 7.03081H16.0938C23.1016 7.03081 22.7656 7.05424 23.1719 6.52299C23.5859 5.97612 23.4375 5.20268 22.8359 4.79643C22.625 4.65581 22.3438 4.64799 16.1719 4.63237C11.2344 4.62456 9.63281 4.64018 9.33594 4.71831Z" fill="#E63D24"/>
<path d="M26.6093 13.9055C26.0703 14.0696 25.7109 14.7024 25.8203 15.2883C25.8671 15.5461 26.0937 15.8039 27.4296 17.1477C28.2812 18.0071 28.9843 18.7414 28.9843 18.7727C28.9843 18.8039 26.1249 18.8274 22.6406 18.8274C16.7499 18.8274 16.2656 18.8352 16.0156 18.968C15.2031 19.3743 15.1718 20.4602 15.9609 21.0461C16.1796 21.2102 16.2265 21.2102 22.6015 21.2336L29.0156 21.2493L27.4453 22.8352C26.0937 24.1868 25.8671 24.4524 25.8203 24.7102C25.6953 25.3664 26.1484 26.0227 26.789 26.1321C27.3828 26.2336 27.5781 26.0774 30.4062 23.2336C33.2499 20.3743 33.2187 20.4133 33.0859 19.7024C33.039 19.4524 32.6874 19.0618 30.4062 16.7649C27.4453 13.7961 27.3203 13.6946 26.6093 13.9055Z" fill="#E63D24"/>
</svg>
