<svg viewBox="0 0 44 30" fill="currentColor" xmlns="http://www.w3.org/2000/svg">
<path d="M30.2076 14.9037C33.968 14.9037 37.0323 11.4952 37.0323 7.34788C37.0323 3.24778 33.9837 0 30.2076 0C26.4629 0 23.3821 3.29576 23.3821 7.37987C23.3978 11.5112 26.4629 14.9037 30.2076 14.9037ZM12.0073 15.2571C15.2617 15.2571 17.9316 12.2827 17.9316 8.63356C17.9316 5.06436 15.2931 2.18678 12.0073 2.18678C8.75286 2.18678 6.06729 5.11314 6.083 8.66555C6.09871 12.2995 8.75286 15.2571 12.0073 15.2571ZM30.2076 12.4762C27.9007 12.4762 25.9254 10.2255 25.9254 7.37987C25.9254 4.58144 27.8693 2.42824 30.2076 2.42824C32.5616 2.42824 34.4889 4.55025 34.4889 7.34709C34.4889 10.1935 32.5459 12.4762 30.2076 12.4762ZM12.0073 12.8616C10.0799 12.8616 8.437 10.9811 8.437 8.66555C8.437 6.39882 10.0634 4.58223 12.0073 4.58223C13.9975 4.58223 15.5933 6.36683 15.5933 8.63356C15.5933 10.981 13.9504 12.8616 12.0073 12.8616ZM3.223 30H15.6255C14.8665 29.5658 14.2819 28.6008 14.3927 27.6205H2.82857C2.51271 27.6205 2.35479 27.4926 2.35479 27.1864C2.35479 23.1998 6.8255 19.4699 11.9924 19.4699C13.9826 19.4699 15.7677 19.952 17.3006 20.8683C17.8091 20.2132 18.4108 19.6389 19.0858 19.1645C17.0476 17.7972 14.5994 17.0904 11.9924 17.0904C5.37193 17.0904 0 21.9773 0 27.3311C0 29.1157 1.07407 30 3.223 30ZM20.2856 30H40.1296C42.7515 30 44 29.1965 44 27.4278C44 23.2158 38.7703 17.1216 30.2076 17.1216C21.6284 17.1216 16.3994 23.2158 16.3994 27.4278C16.3994 29.1965 17.6471 30 20.2856 30ZM19.5274 27.5726C19.1164 27.5726 18.9428 27.4606 18.9428 27.1224C18.9428 24.4855 22.9554 19.5507 30.2076 19.5507C37.444 19.5507 41.4559 24.4855 41.4559 27.1224C41.4559 27.4598 41.2987 27.5726 40.887 27.5726H19.5274Z" fill="#0E3EA0"/>
</svg>
