<?xml version="1.0" standalone="no"?>
<!DOCTYPE svg PUBLIC "-//W3C//DTD SVG 20010904//EN"
 "http://www.w3.org/TR/2001/REC-SVG-20010904/DTD/svg10.dtd">
<svg version="1.0" xmlns="http://www.w3.org/2000/svg"
 width="512.000000pt" height="512.000000pt" viewBox="0 0 512.000000 512.000000"
 preserveAspectRatio="xMidYMid meet">

<g transform="translate(0.000000,512.000000) scale(0.100000,-0.100000)"
fill="#000000" stroke="none">
<path d="M2495 4750 c-26 -13 -458 -438 -1257 -1237 -1058 -1060 -1218 -1223
-1228 -1260 -22 -73 6 -145 70 -178 44 -23 122 -19 156 6 16 12 545 538 1177
1168 l1147 1146 1148 -1146 c631 -630 1160 -1156 1176 -1168 34 -25 112 -29
156 -6 64 33 92 105 70 178 -10 37 -170 200 -1228 1260 -828 828 -1230 1224
-1258 1237 -51 25 -79 25 -129 0z"/>
<path d="M790 2342 c-50 -25 -77 -72 -85 -145 -3 -34 -5 -438 -3 -897 l3 -835
24 -39 c15 -24 40 -45 65 -57 39 -18 106 -19 1766 -19 1660 0 1727 1 1766 19
25 12 50 33 65 57 l24 39 0 890 c0 872 0 891 -20 924 -28 48 -65 72 -118 78
-58 7 -116 -24 -146 -77 -21 -38 -21 -42 -21 -829 l0 -791 -1550 0 -1550 0 0
791 c0 787 0 791 -21 829 -40 71 -127 99 -199 62z"/>
</g>
</svg>
