<?xml version="1.0" standalone="no"?>
<!DOCTYPE svg PUBLIC "-//W3C//DTD SVG 20010904//EN"
 "http://www.w3.org/TR/2001/REC-SVG-20010904/DTD/svg10.dtd">
<svg version="1.0" xmlns="http://www.w3.org/2000/svg"
 width="302.000000pt" height="310.000000pt" viewBox="0 0 302.000000 310.000000"
 preserveAspectRatio="xMidYMid meet">

<g transform="translate(0.000000,310.000000) scale(0.100000,-0.100000)"
fill="#000000" stroke="none">
<path d="M970 1261 c-68 -41 -95 -62 -95 -76 0 -35 38 -28 130 25 105 60 120
73 112 94 -11 28 -49 16 -147 -43z"/>
<path d="M1229 1144 c-16 -20 -34 -51 -49 -84 -6 -13 -15 -27 -19 -30 -5 -3
-17 -26 -29 -52 -14 -33 -17 -49 -9 -57 18 -18 47 -12 56 12 5 12 32 62 60
111 40 69 49 91 40 102 -15 18 -34 18 -50 -2z"/>
<path d="M1462 1088 c-19 -19 -16 -242 3 -258 12 -10 18 -10 30 0 12 10 15 38
15 129 0 108 -7 141 -30 141 -3 0 -11 -5 -18 -12z"/>
</g>
</svg>
