<svg viewBox="0 0 35 35" fill="none" xmlns="http://www.w3.org/2000/svg">
<path d="M16.1122 1.94811C13.1659 2.50866 10.8486 4.68932 10.0693 7.64245C9.91887 8.20983 9.89153 8.46276 9.88469 9.3651C9.87786 10.5409 9.95305 11.0536 10.2743 11.9628C11.1835 14.5673 13.2822 16.3993 16.0302 16.994C17.1513 17.2333 18.7372 17.1307 19.9267 16.7411C23.1396 15.6815 25.3202 12.4755 25.1357 9.05749C24.9579 5.77624 22.62 2.90514 19.4482 2.078C18.58 1.85241 16.9599 1.79089 16.1122 1.94811ZM19.2089 4.29967C20.6718 4.79186 21.7861 5.78307 22.4286 7.14342C22.832 8.00475 22.9277 8.44909 22.9277 9.46764C22.9277 10.5409 22.832 10.9715 22.3534 11.9354C21.6767 13.3094 20.5146 14.2733 18.956 14.7382C18.4433 14.8885 18.2245 14.9159 17.4999 14.9159C16.7753 14.9159 16.5566 14.8885 16.0439 14.7382C14.3212 14.2255 13.0634 13.0907 12.414 11.4569C12.0107 10.4589 11.9286 9.13268 12.2089 8.10046C12.7284 6.15905 14.2323 4.68932 16.2353 4.16296C16.6181 4.06042 16.9052 4.03991 17.6366 4.06042C18.4638 4.08092 18.6279 4.10143 19.2089 4.29967Z" fill="white"/>
<path d="M16.3721 17.9102C13.1045 18.1836 10.042 19.5576 7.69727 21.8066C4.83301 24.5479 3.28125 28.2188 3.28125 32.2451V33.1543H4.36816H5.44824L5.48926 31.9033C5.57129 29.7568 5.93359 28.2803 6.80859 26.585C9.31738 21.7246 14.7793 19.1611 20.0908 20.3438C24.8896 21.417 28.54 25.2588 29.3672 30.1123C29.4219 30.4473 29.4902 31.2744 29.5107 31.9375L29.5518 33.1543H30.6318H31.7188V32.3066C31.7188 27.3643 29.4287 23.0029 25.4092 20.2754C22.8525 18.5391 19.4551 17.6504 16.3721 17.9102Z" fill="white"/>
</svg>
