<svg xmlns="http://www.w3.org/2000/svg" version="1.0" width="1334.000000pt" height="646.000000pt" viewBox="0 0 1334.000000 646.000000" preserveAspectRatio="xMidYMid meet">
<g transform="translate(0.000000,646.000000) scale(0.100000,-0.100000)" fill="none" stroke="none">
<path d="M1320 4393 c-1 -5 122 -594 272 -1310 l273 -1303 292 0 291 0 10 43 c69 321 358 1545 363 1539 4 -4 89 -361 190 -795 l184 -787 290 2 290 3 267 1270 c147 699 270 1287 273 1308 l7 37 -281 0 c-189 0 -281 -3 -281 -10 0 -15 -311 -1714 -314 -1717 -1 -2 -80 347 -175 775 -95 427 -182 816 -193 865 l-20 87 -239 0 -239 0 -5 -22 c-3 -13 -88 -401 -190 -862 -101 -461 -186 -840 -187 -842 -2 -1 -66 338 -142 754 -76 416 -148 805 -159 865 l-20 107 -278 0 c-154 0 -279 -3 -279 -7z" fill="#FFFFFF" />
<path d="M5271 4391 l-74 -6 -468 -1284 c-258 -706 -471 -1292 -474 -1302 -6 -18 4 -19 298 -19 l304 0 36 113 c19 61 56 178 82 260 l46 147 448 0 449 0 41 -130 c23 -71 59 -188 82 -260 l41 -130 304 0 c167 0 304 2 304 4 0 6 -950 2600 -954 2603 -6 6 -399 10 -465 4z m352 -1154 c81 -259 148 -475 147 -479 0 -13 -600 -10 -600 3 0 19 294 949 300 949 3 0 72 -213 153 -473z" fill="#FF256E" />
<path d="M7781 4388 c0 -7 193 -596 428 -1308 l427 -1295 307 -3 c169 -1 307 0 307 3 0 4 194 589 430 1301 237 713 430 1300 430 1305 0 5 -130 9 -313 9 l-313 0 -264 -952 c-144 -524 -266 -962 -270 -973 -9 -24 21 -128 -290 999 -138 500 -253 913 -256 918 -3 4 -144 8 -315 8 -241 0 -309 -3 -308 -12z" fill="#FFFFFF" />
<path d="M10330 3090 l0 -1310 860 0 860 0 0 225 0 225 -580 0 -580 0 0 335 0 335 490 0 490 0 0 220 0 220 -487 2 -488 3 -3 298 -2 297 580 0 580 0 0 230 0 230 -860 0 -860 0 0 -1310z" fill="#FFFFFF" />
<path d="M6950 3085 l0 -1305 285 0 285 0 0 1305 0 1305 -285 0 -285 0 0 -1305z" fill="#FF256E" />
</g>
</svg>